inDegrees=no
num_controls=7
num_derivatives=13
num_iterations=122
num_multipliers=7
num_parameters=0
num_slacks=7
num_states=26
objective=0.516825
objective_accelerations=0.039464
objective_balance=0.002252
objective_effort=0.044045
objective_height=0.419405
objective_ligament=0.011659
solver_duration=1610.203474
status=Solve_Succeeded
success=true
DataType=double
version=3
OpenSimVersion=4.5
endheader
time	/jointset/ground_pelvis/pelvis_tilt/value	/jointset/ground_pelvis/pelvis_tx/value	/jointset/ground_pelvis/pelvis_ty/value	/jointset/hip_l/hip_flexion_l/value	/jointset/hip_l/hip_adduction_l/value	/jointset/hip_l/hip_rotation_l/value	/jointset/back/lumbar_extension/value	/jointset/patellofemoral_l/patellar_flexion_l/value	/jointset/knee_l/knee_flexion_l/value	/jointset/knee_l/knee_adduction_l/value	/jointset/knee_l/knee_rotation_l/value	/jointset/ankle_l/ankle_angle_l/value	/jointset/subtalar_l/subtalar_angle_l/value	/jointset/ground_pelvis/pelvis_tilt/speed	/jointset/ground_pelvis/pelvis_tx/speed	/jointset/ground_pelvis/pelvis_ty/speed	/jointset/hip_l/hip_flexion_l/speed	/jointset/hip_l/hip_adduction_l/speed	/jointset/hip_l/hip_rotation_l/speed	/jointset/back/lumbar_extension/speed	/jointset/patellofemoral_l/patellar_flexion_l/speed	/jointset/knee_l/knee_flexion_l/speed	/jointset/knee_l/knee_adduction_l/speed	/jointset/knee_l/knee_rotation_l/speed	/jointset/ankle_l/ankle_angle_l/speed	/jointset/subtalar_l/subtalar_angle_l/speed	/forceset/tau_hip_flexion_l	/forceset/tau_hip_adduction_l	/forceset/tau_hip_rotation_l	/forceset/tau_knee_flexion_l	/forceset/tau_ankle_angle_l	/forceset/tau_subtalar_angle_l	/forceset/tau_lumbar_extension	lambda_cid13_p0	lambda_cid13_p1	lambda_cid13_p2	lambda_cid13_p3	lambda_cid13_p4	lambda_cid13_p5	lambda_cid14_p0	/jointset/ground_pelvis/pelvis_tilt/accel	/jointset/ground_pelvis/pelvis_tx/accel	/jointset/ground_pelvis/pelvis_ty/accel	/jointset/hip_l/hip_flexion_l/accel	/jointset/hip_l/hip_adduction_l/accel	/jointset/hip_l/hip_rotation_l/accel	/jointset/back/lumbar_extension/accel	/jointset/patellofemoral_l/patellar_flexion_l/accel	/jointset/knee_l/knee_flexion_l/accel	/jointset/knee_l/knee_adduction_l/accel	/jointset/knee_l/knee_rotation_l/accel	/jointset/ankle_l/ankle_angle_l/accel	/jointset/subtalar_l/subtalar_angle_l/accel	gamma_cid13_p0	gamma_cid13_p1	gamma_cid13_p2	gamma_cid13_p3	gamma_cid13_p4	gamma_cid13_p5	gamma_cid14_p0
1.5	-0.01785842615087804	-0.02775109962082152	0.8685425254424999	0.6355673194458337	-0.3123368646752068	-0.1792340895525811	-0.7850849631342279	0.6343383033422945	0.6343383033429876	-0.1089951810284222	-0.1744949819530467	0.0645676921960049	0.00394414820553776	0.3971951231975852	0.2836521744500131	0.3435418650627414	-1.875464805339833	0.09432470614059459	-0.5326408692978989	0.840412953346338	-1.626786041755274	-1.626786041755685	-0.1247627537149928	-0.0001298108162204833	-0.2355692796853996	0.02665189996820071	-0.2066330521200985	0.02193094612181557	-0.003839395572486109	-0.1892150494515509	0.102188968267088	0.03943616067828921	0.2815525460608319	-10.05417948570215	-17.40287246913632	4.645973072031863	-8.779917839862069	-673.0777459337103	-74.63549391929597	-20.07605305355708	-0.00724649833904226	0.6346051568046002	-0.499193238607239	-0.6325578418886437	0.3122642596898977	-0.2142804136205595	1.748334275376749	-0.6219316080207298	-0.6219316080207224	-0.2987933931033079	0.02943985182104337	0.04125770609803352	0.3341602230038065	-3.674400215620162e-09	9.818305288830721e-07	1.581500635693724e-07	1.552681379482571e-07	7.572900972960787e-08	1.284687796715613e-07	9.500404392928057e-08
1.51	-0.0138872913333999	-0.02488311356816407	0.8719523367995082	0.6167830631288813	-0.3113784400084841	-0.1845723344955974	-0.7765945178006125	0.6180413962373822	0.6180413962380521	-0.1102576312451866	-0.1744965440293035	0.06221440263910918	0.004227014810361394	0.3969791452370052	0.2899151380028632	0.3383569874468734	-1.881157207828521	0.09735199174623399	-0.534957985182908	0.8575709114982492	-1.63238205602219	-1.632382056022248	-0.1277225085413434	-0.0001841752589170644	-0.2350395181209826	0.02992685917608207	-0.1992269243815388	0.02102456615052706	-0.003810139181144904	-0.1865623103407179	0.1015811578749075	0.03865803323230194	0.2746946034098787	-10.05877041798539	-17.11979376281836	4.66442645148443	-8.554141123783637	-669.4302509739343	-74.65790970326553	-20.53956237058778	-0.0366875767392789	0.6176897671287211	-0.5376345540105908	-0.5032060526099446	0.2965571779848069	-0.2328340654911865	1.683746303210666	-0.4964556623732301	-0.4964556623201293	-0.2936613570387794	-0.02309447534390605	0.06622814707126987	0.3247962563371986	-1.323342633701604e-08	9.987085445037747e-07	1.906173822184248e-07	1.601212064575192e-07	6.964730569201085e-08	1.26647346375985e-07	9.106595714661246e-08
1.52	-0.009919899121893542	-0.02195338831745753	0.8753083994741708	0.5979487578669929	-0.3103900231923037	-0.1899322319753748	-0.767935648941856	0.6016949251245093	0.6016949251252007	-0.1115494979761237	-0.1744986937266247	0.05986788925094951	0.004542757504595252	0.3964466020035656	0.2960000140598314	0.3327921285936284	-1.885474594327247	0.1003231360312223	-0.5369713766499232	0.8740976583746622	-1.636698843342951	-1.636698843342655	-0.1306460565532067	-0.0002473350227659686	-0.2342140459382551	0.03322711785024018	-0.1918207966429707	0.02011818617924854	-0.003780882789546127	-0.1839095712298981	0.1009733474827272	0.03787990578631939	0.2678366607589291	-10.06946976728662	-16.83543959894109	4.68244119559277	-8.330219988344799	-665.8854482755239	-74.69703701496108	-20.97908450421049	-0.07055955291103118	0.5989876576282557	-0.5751894860826618	-0.35755464389606	0.3010359955596661	-0.1535355300217529	1.62209202027705	-0.3660862187896514	-0.3660862187896557	-0.2915520302058671	0.02768078759058204	0.1003998297601703	0.339220116259179	-1.156232426395439e-08	9.861441829046008e-07	1.667264664731845e-07	1.552164441665115e-07	7.382114805091441e-08	1.313236246309412e-07	9.156835973729067e-08
1.53	-0.005959433532394401	-0.01896375683873828	0.8786069677908313	0.579078174074211	-0.3093722156174871	-0.195310415117423	-0.7591147497464572	0.5853116774215295	0.5853116774221322	-0.1128706378463946	-0.1745012464143757	0.05753109570315982	0.004891581204188197	0.3955913399551069	0.3018908074360269	0.3268633550883411	-1.888405572968029	0.1032292014912608	-0.5386131990456144	0.8899685844013421	-1.639732087508302	-1.639732087508387	-0.1335706360318	-0.0002621169917959948	-0.2330943004909445	0.03654281304597538	-0.1843564166288452	0.01917034896232999	-0.003800826119507975	-0.1813218616491215	0.1004139667894716	0.03702511561662408	0.2609289222424718	-10.07579966591386	-16.51645214814521	4.692531479313966	-8.074537840965659	-662.4539661159516	-74.68605016473873	-21.39185577616866	-0.101292474090596	0.5788303941377624	-0.6104288383604498	-0.2253884972633753	0.2838795720309392	-0.1616141450772083	1.552553448178468	-0.2391719701370769	-0.2391719701943932	-0.2910554543487756	-0.01590980131144337	0.1253392251636134	0.3283733773928777	2.040789015718242e-09	9.422972955093093e-07	8.295492668400884e-08	1.399439866502172e-07	8.889150845609972e-08	1.429037214083381e-07	9.678878228714926e-08
1.54	-0.002009177152037345	-0.01591627638295269	0.881844506861317	0.5601853766904036	-0.3083256498379053	-0.2007034381935754	-0.7501385491799291	0.5689046515859328	0.5689046515864754	-0.1142206524209723	-0.1745039173442718	0.05520701507443314	0.005273687686970981	0.394404760175568	0.3075698094730993	0.3205862793586967	-1.889917312532574	0.1060747769834949	-0.5399393634706831	0.9051579326006303	-1.641454469862826	-1.641454469863294	-0.1364209974169006	-0.0002709834472894323	-0.2316714621257488	0.03988367448819866	-0.176892036614707	0.01822251174542087	-0.003820769449285285	-0.178734152068353	0.09985458609621767	0.03617032544693723	0.2540211837260216	-10.08848853838704	-16.19576568219991	4.701682090110678	-7.820322815207682	-659.1287854377839	-74.69491587418322	-21.77517584136561	-0.1368230991271798	0.5566293898036766	-0.6448499309540733	-0.0737068286487914	0.2889380019987883	-0.09040393589718934	1.4857764547986	-0.1039138566245717	-0.1039138566245699	-0.2767084115073076	0.02886389029790627	0.1610184133372305	0.344253365556817	6.284592283780784e-09	9.250372074422021e-07	4.852256404942956e-08	1.322806773608523e-07	9.779296562709197e-08	1.487652442409483e-07	9.813194729097477e-08
